<?xml version="1.0" encoding="UTF-8" standalone="no"?>
<svg width="18px" height="34px" viewBox="0 0 18 34" version="1.1" xmlns="http://www.w3.org/2000/svg" xmlns:xlink="http://www.w3.org/1999/xlink">
    <!-- Generator: Sketch 3.6.1 (26313) - http://www.bohemiancoding.com/sketch -->
    <title>Path</title>
    <desc>Created with Sketch.</desc>
    <defs></defs>
    <g id="SCREENS" stroke="none" stroke-width="1" fill="none" fill-rule="evenodd">
        <g id="3.1a-Card-Details" transform="translate(-43.000000, -77.000000)" fill="#9E9E9E">
            <g id="Top-Bar">
                <g id="icons" transform="translate(32.000000, 70.000000)">
                    <g id="ic_back">
                        <path d="M27.719394,37.95171 C26.9321536,37.1490786 26.9321536,37.1490786 24.214108,34.3778935 L13.70674,23.6651 C13.7938978,23.7539619 13.7943209,23.8995985 13.70674,23.9888917 L27.7193941,9.70228172 C28.2028011,9.20942378 28.1951397,8.41800464 27.7022817,7.93459759 C27.2094238,7.45119055 26.4180046,7.45885202 25.9345976,7.95170996 L11.9219435,22.2383199 C11.0536515,23.1235875 11.0577501,24.5345829 11.9219435,25.4156718 L22.4293115,36.1284652 C25.1473571,38.8996503 25.1473571,38.8996503 25.9345975,39.7022817 C26.4180045,40.1951397 27.2094237,40.2028011 27.7022816,39.7193941 C28.1951396,39.235987 28.202801,38.4445679 27.719394,37.95171 L27.719394,37.95171 Z" id="Path"></path>
                    </g>
                </g>
            </g>
        </g>
    </g>
</svg>